<svg width="14" height="14" xmlns="http://www.w3.org/2000/svg"><g id="Events" stroke="none" stroke-width="1" fill="none" fill-rule="evenodd"><g id="Assets" transform="translate(-790 -401)"><path id="Rectangle" d="M720-6h748v1210H720z"/><g id="151882" transform="translate(791 402.25)" fill="#FFF" fill-rule="nonzero" stroke="#FFF"><path d="M7.061 5.786l4.72-4.55a.705.705 0 0 0 0-1.024.77.77 0 0 0-1.062 0L6 4.762 1.281.213a.77.77 0 0 0-1.061 0 .705.705 0 0 0 0 1.023l4.719 4.55-4.72 4.551a.705.705 0 0 0 0 1.024.763.763 0 0 0 .531.211c.192 0 .384-.07.531-.212l4.72-4.55 4.718 4.55a.763.763 0 0 0 .53.212.76.76 0 0 0 .531-.212.705.705 0 0 0 0-1.023l-4.719-4.55z" id="Shape"/></g></g></g></svg>