<svg width="39" height="48" xmlns="http://www.w3.org/2000/svg"><g id="Events" stroke="none" stroke-width="1" fill="none" fill-rule="evenodd"><g id="Assets" transform="translate(-351 -241)"><g id="Icon" transform="translate(344 239)"><circle id="Oval" fill-opacity="0" fill="#D8D8D8" cx="26" cy="26" r="26"/><g id="006-fridge" transform="translate(7 2)" fill="#333" fill-rule="nonzero"><path d="M29.6 5.6H28a.8.8 0 1 0 0 1.6h1.6a.8.8 0 1 0 0-1.6zm-23.2 12H4v11.2h9.6V17.6H6.4zm3.2 1.6v2.4H8v-2.4h1.6zm2.4 0v8H5.6v-8h.8v4h4.8v-4h.8zm4-3.2a.8.8 0 0 0-.8.8v12.8a.8.8 0 1 0 1.6 0V16.8a.8.8 0 0 0-.8-.8zm6.4 0a.8.8 0 0 0-.8.8v12.8a.8.8 0 1 0 1.6 0V16.8a.8.8 0 0 0-.8-.8zM12 36a.8.8 0 0 0 .8.8h12.8a.8.8 0 1 0 0-1.6H12.8a.8.8 0 0 0-.8.8z" id="Shape"/><path d="M36.664 0H1.736C.779 0 0 .78 0 1.736v43.92A2.346 2.346 0 0 0 2.344 48h33.712a2.347 2.347 0 0 0 2.344-2.344V1.736C38.4.779 37.62 0 36.664 0zM1.6 1.736c0-.075.06-.136.136-.136H18.4V32H1.6V1.736zm35.2 43.92c0 .41-.334.744-.744.744H2.344a.745.745 0 0 1-.744-.744V33.6h35.2v12.056zM20 32V1.6h16.664c.075 0 .136.06.136.136V32H20z" id="Shape"/></g></g></g></g></svg>