<svg width="53" height="52" xmlns="http://www.w3.org/2000/svg"><g id="Events" stroke="none" stroke-width="1" fill="none" fill-rule="evenodd"><g id="Assets" transform="translate(-44 -609)"><g id="Elements-/-Richdata-/-Music-controls" transform="translate(44 537)"><g id="Prev" transform="translate(0 72)"><rect id="Rectangle-5" fill-opacity=".4" fill="#D8D8D8" x="0" y="0" width="53" height="52" rx="26"/><path d="M11.652 24.013l10.01-9.009A2 2 0 0 1 25 16.491v18.018a2 2 0 0 1-3.338 1.487l-10.01-9.01a2 2 0 0 1 0-2.973z" id="Path-2" fill="#8C8B8B"/><path d="M24.652 24.013l10.01-9.009A2 2 0 0 1 38 16.491v18.018a2 2 0 0 1-3.338 1.487l-10.01-9.01a2 2 0 0 1 0-2.973z" id="Path-2" fill="#8C8B8B"/></g></g></g></g></svg>