<svg width="48" height="29" xmlns="http://www.w3.org/2000/svg"><g id="Events" stroke="none" stroke-width="1" fill="none" fill-rule="evenodd"><g id="Assets" transform="translate(-446 -335)"><g id="Icon" transform="translate(444 323)"><circle id="Oval" fill-opacity="0" fill="#D8D8D8" cx="26" cy="26" r="26"/><g id="007-google-home" transform="translate(2 12)" fill="#333" fill-rule="nonzero"><path d="M24 .063c-12.337 0-24 5.345-24 11 0 10.766 3.927 17 24 17s24-6.234 24-17c0-5.655-11.663-11-24-11zm0 2c12.762 0 22 5.376 22 9 0 3.38-8.84 7-22 7s-22-3.62-22-7c0-3.625 9.238-9 22-9zm0 24c-15.722 0-20.597-3.823-21.71-10.941 4.053 3.253 12.913 4.94 21.71 4.94s17.657-1.687 21.71-4.94c-1.113 7.118-5.988 10.94-21.71 10.94z" id="Shape"/><circle id="Oval" cx="18" cy="5.063" r="1"/><circle id="Oval" cx="22" cy="5.063" r="1"/><circle id="Oval" cx="26" cy="5.063" r="1"/><circle id="Oval" cx="30" cy="5.063" r="1"/><path d="M22 23.063a1 1 0 0 0 1 1h2a1 1 0 1 0 0-2h-2a1 1 0 0 0-1 1z" id="Shape"/></g></g></g></g></svg>