<svg width="48" height="23" xmlns="http://www.w3.org/2000/svg"><g id="Events" stroke="none" stroke-width="1" fill="none" fill-rule="evenodd"><g id="Assets" transform="translate(-146 -339)"><g id="stats" transform="translate(144 323)"><circle id="Oval" fill-opacity="0" fill="#D8D8D8" cx="26" cy="26" r="26"/><g id="line-chart" transform="translate(2 16)" fill="#333" fill-rule="nonzero"><path d="M42.903 0c-2.81 0-5.096 2.312-5.096 5.153 0 1.037.305 2.002.828 2.81l-5.506 5.568a5.025 5.025 0 0 0-2.78-.837c-1.062 0-2.05.33-2.866.895L21.92 7.963a5.162 5.162 0 0 0 .827-2.81C22.747 2.312 20.461 0 17.651 0s-5.097 2.312-5.097 5.153c0 1.036.305 2 .828 2.81L7.875 13.53a5.025 5.025 0 0 0-2.778-.836C2.287 12.694 0 15.005 0 17.847 0 20.688 2.286 23 5.097 23c2.81 0 5.096-2.312 5.096-5.153a5.162 5.162 0 0 0-.828-2.81l5.506-5.568c.8.529 1.755.837 2.78.837s1.98-.308 2.78-.837l5.593 5.657a5.163 5.163 0 0 0-.771 2.72c0 2.842 2.286 5.154 5.096 5.154s5.097-2.312 5.097-5.153a5.16 5.16 0 0 0-.828-2.81l5.507-5.568c.8.529 1.754.837 2.778.837 2.81 0 5.097-2.311 5.097-5.153C48 2.312 45.714 0 42.903 0zM5.097 20.87c-1.65 0-2.99-1.356-2.99-3.023s1.34-3.023 2.99-3.023c1.648 0 2.99 1.356 2.99 3.023s-1.342 3.023-2.99 3.023zM17.65 8.176c-1.649 0-2.99-1.356-2.99-3.023s1.341-3.023 2.99-3.023c1.649 0 2.99 1.356 2.99 3.023s-1.34 3.023-2.99 3.023zM30.349 20.87c-1.649 0-2.99-1.356-2.99-3.023s1.341-3.023 2.99-3.023c1.649 0 2.99 1.356 2.99 3.023s-1.341 3.023-2.99 3.023zM42.903 8.176c-1.648 0-2.99-1.356-2.99-3.023s1.342-3.023 2.99-3.023c1.649 0 2.99 1.356 2.99 3.023s-1.341 3.023-2.99 3.023z" id="Shape"/><path d="M16.71 12.29a.992.992 0 0 0-1.403 0l-2.017 2.017a.992.992 0 0 0 1.403 1.403l2.016-2.017a.991.991 0 0 0 0-1.403zm19-6a.992.992 0 0 0-1.403 0L32.29 8.307a.992.992 0 0 0 1.403 1.403l2.017-2.017a.992.992 0 0 0 0-1.403z" id="Shape"/></g></g></g></g></svg>